<?xml version="1.0" encoding="utf-8"?>
<!-- Generator: Adobe Illustrator 21.1.0, SVG Export Plug-In . SVG Version: 6.00 Build 0)  -->
<svg version="1.1" id="Layer_1" xmlns="http://www.w3.org/2000/svg" xmlns:xlink="http://www.w3.org/1999/xlink" x="0px" y="0px"
	 viewBox="0 0 1642.2 496" style="enable-background:new 0 0 1642.2 496;" xml:space="preserve">
<style type="text/css">
	.st0{clip-path:url(#XMLID_8_);fill:#06B2A1;}
	.st1{fill:#FFFFFF;}
	.st2{fill:#3A3A3A;}
	.st3{clip-path:url(#XMLID_9_);fill:#06B2A1;}
	.st4{fill:#00C7B7;}
	.st5{fill:#161616;}
	.st6{clip-path:url(#XMLID_12_);fill:#06B2A1;}
</style>
<g>
	<path d="M160,114.1c1.9-2.2,3.4-5.1,5.7-6.5c7.5-4.4,15.3-8.4,23.1-12.4c6.8-3.5,13.8-6.5,20.6-10c2.5-1.3,4.6-3.5,7.2-4.8
		c8-4,16.1-7.8,24.1-11.7c3.2-1.6,6.2-3.8,9.5-5.2c8.8-3.6,17.8-6.8,26.6-10.4c8.1-3.3,16.2-6.8,24.3-10.3c3.9-1.7,7.7-3.7,11.7-5
		c2.1-0.7,4.7-0.1,5.9-0.1c3-1.5,5.2-2.8,7.5-3.7c5.3-2,10.5-3.9,15.9-5.5c13.2-3.8,26.4-7.6,39.7-11c13.7-3.5,27.4-6.9,41.3-9.7
		c12.2-2.4,24.5-4.2,36.8-5.6C471.3,1,482.9-0.2,494.5,0c13.8,0.2,27.7,1.8,41.5,3c14.2,1.2,27.4,6.1,39.7,13
		c13.4,7.5,24.1,18.3,27.1,34c1.4,7.2,0.7,15.4-1.2,22.6c-4.3,16.8-13.9,31-24.6,44.5c-8.2,10.4-15.7,21.4-24.5,31.2
		c-7.9,8.9-17.2,16.6-25.9,24.7c-5,4.6-10.1,9.1-15.3,13.6c-2.1,1.8-4.5,3.4-6.7,5.2c-1.8,1.5-3.5,3.1-5.3,4.7
		c0.3,0.5,0.5,0.9,0.8,1.4c2.6-0.8,5.3-1.4,7.8-2.4c15.8-6,31.5-12.1,48.2-15.4c11-2.2,21.5-6.4,32.5-8.5c18.2-3.5,36.6-6.1,54.9-9
		c20.5-3.2,41.1-1.7,61.5,0.8c13.9,1.7,26.5,6.9,37.8,15.3c2.2,1.7,4.7,3.9,5.4,6.4c2.2,7.2,7.9,4.7,12.2,4.7
		c7.2,0,14.4-1.1,21.6-1.7c5.8-0.5,11.7-1,17.5-1.3c10.8-0.5,21.6-0.9,32.4-1.3c11.9-0.4,23.8-1.6,35.7-1.1
		c18.7,0.7,37.5,2.2,56.1,3.9c16.2,1.5,32.3,4.1,48.5,5.7c7.4,0.8,14.9,0,22.4,0.6c14.3,1.2,28.9-1.6,43.1,2.2
		c2.9,0.8,6.2-0.4,9.4-0.3c24.2,1.2,48.4,2.8,72.7,3.8c9.6,0.4,19.3-0.8,28.9-0.6c10.8,0.1,21.6,0.7,32.3,1.5
		c11.6,0.8,23.1,0.9,34.8-0.4c12.7-1.4,25.6-0.7,38.3-1.5c10.1-0.6,20.1-2,30.2-2.9c22.2-1.9,44.4-3.4,66.5-5.8
		c17.3-1.8,34.5-4.7,51.8-7.1c16.4-2.3,32.7-5,49.2-6.8c17.5-1.9,35.1-2.9,52.7-4.5c6.3-0.5,12.5-1.8,18.8-2
		c10.1-0.4,20.2-0.4,30.4-0.2c14.1,0.3,28.3,0.2,42.3,1.5c13.5,1.3,26.8,4.1,40.2,6.4c2.1,0.4,4.1,2.1,6.1,3.9c-2-0.1-4,0.1-5.9-0.3
		c-18.2-4-36.4-6.4-55.3-5.2c-15.3,1-30.9-1.4-46.2-0.3c-24.2,1.7-48.2,4.9-72.3,7.9c-21.6,2.7-43,6.1-64.6,9
		c-12.3,1.7-24.6,2.8-36.9,4.3c-16.8,2-33.6,4.6-50.5,6c-7.7,0.6-15.3,2.3-23.2,1.7c-9-0.7-18.2,1.1-27.3,1.5
		c-9.5,0.5-19.1,0.8-28.6,1.2c-5.8,0.2-11.7-0.3-17.4,0.7c-13.8,2.5-27.5,1-41.2-0.2c-10.9-1-21.9-0.8-32.9-1
		c-14.1-0.3-28.3-0.2-42.4-0.8c-22.4-1.1-44.8-2.8-67.2-3.9c-20.9-1-41.9-1.1-62.7-2.5c-14.5-1-29-3.8-43.5-5.3
		c-15.8-1.6-31.6-3-47.4-3.8c-13.2-0.7-26.5-0.8-39.7-0.4c-13.8,0.3-27.5,1.4-41.2,2.3c-10.9,0.6-21.8,1.3-32.7,2.1
		c-3.3,0.2-6.5,0.7-10.1,1.2c-5.6,22.5-20.9,39.3-35.4,56.2c-9,10.5-20.1,19.2-30.4,28.6c-6,5.5-12,11-18.2,16.1
		c-10,8.2-20.2,16.2-30.4,24.1c-12,9.2-23.9,18.6-36.3,27.1c-13.2,9-27.1,17.2-40.8,25.5c-11.2,6.8-22.6,13.4-33.9,20.1
		c-16.8,9.9-33.7,19.8-50.6,29.6c-10.4,6-20.7,12.2-31.3,17.7c-13.1,6.7-26.5,12.9-39.8,19.1c-6.9,3.3-13.8,6.4-20.8,9.4
		c-19.4,8.4-38.4,17.9-59.5,21.7c-8.2,1.5-16.3,3.5-24.5,4.5c-10.4,1.3-18.8-7.4-14-17.5c0.5-1,0.5-2.3,0.2-3.4
		c-1.2-5.2,1.3-8,5.1-11.2c4-3.5,7.1-8.2,9.9-12.9c6.2-10.3,13.6-19.5,22.2-27.8c17-16.3,33.9-32.7,51.1-48.8
		c8.5-7.9,17.5-15.3,26.6-22.5c6.1-4.8,12.5-9.3,19.2-13.2c5.6-3.3,3.9-7.7,2.8-11.9c-5.1-19.6-10.4-39.2-15.7-58.8
		c-0.4-1.4-0.5-2.8-1-5.3c-4.5,2.7-8.5,5.1-12.5,7.6c-13.1,8.2-25.9,17-39.4,24.6c-18.8,10.7-38,20.8-57.2,30.9
		c-2.4,1.3-5.3,1.8-8.1,2.1c-1.5,0.1-4.5-1.1-4.5-1.7c0.1-2.1,0.4-5.2,1.9-6.1c16.5-10.5,28.2-26.7,44.4-37.4
		c8-5.3,16.2-10.2,24.2-15.4c5.2-3.4,10.2-7.2,15.4-10.6c1.9-1.3,4.2-1.9,6.3-3c7.1-3.9,14.1-7.9,21.2-11.9c2.8-1.6,4.4-3.3,3.2-7.1
		c-1.5-4.5-2.1-9.4-2.7-14.1c-0.2-1.7,0.6-3.6,0.7-4.4c-1-2.6-2.1-4.5-2.5-6.5c-1.9-9.3-3.7-18.6-5.5-27.9c-1-5.1-1.9-10.2-2.7-15.4
		c-1.4-9.3-3.1-18.7-3.7-28c-0.8-11.5-0.7-23.2-1-34.7c-0.1-3.9-0.6-7.7-0.4-11.6c0.1-1.2,1.8-2.3,2.7-3.5c0.8,1.2,2.1,2.4,2.2,3.7
		c0.8,12.6,1.1,25.2,2.1,37.8c0.8,10.2,2.4,20.4,3.8,30.6c1.2,8.3,2.4,16.7,4,24.9c1.6,8.7,3.8,17.3,5.6,26c1.1,5.5,2,11.1,3,16.6
		c0.5,2.5,1.1,4.9,1.8,8c5.8-2.6,10.9-4.8,16-7c13.1-5.7,26.3-10.9,39.1-17.3c6.7-3.3,12.4-8.8,18.8-12.9c19.1-12.2,34.7-28.6,52-43
		c6.7-5.5,11.9-12.9,17.6-19.5c5.2-6,10.5-12,15-18.5c7.6-11.2,15.7-22.2,21.6-34.3c4-8.3,6-18.2,6.2-27.4
		c0.2-13.8-7.3-24.6-19.2-31.5c-8.6-5-17.6-9.3-26.8-12.9c-6-2.3-12.7-2.9-19.2-3.7c-9.3-1.1-18.6-2.4-28-2.3
		c-14.4,0.1-28.8,0.9-43.1,2c-24,1.8-47.4,7.4-70.8,12.5c-8,1.7-15.7,4.7-23.7,6.8c-6.4,1.7-13,2.8-19.4,4.4
		c-1.3,0.3-2.5,1.6-3.8,1.9c-1.2,0.3-2.5-0.2-3.3,0.6c-5,2-9.9,4.2-15,6.1c-11.1,4.1-22.4,7.8-33.5,11.9c-6.9,2.6-13.8,5.4-20.6,8.3
		c-2.7,1.1-5,3.1-7.7,4.1c-2.4,0.9-5,0.8-7.7,1.2c-1.6,1.3-3.3,3.3-5.6,4.4c-7.9,3.7-16,6.9-24,10.4c-1.3,0.6-2.2,2-3.5,2.7
		c-1.4,0.8-3.1,1.1-4.6,1.7c-1,0.4-1.8,0.9-2.8,1.4c-2.3,1.2-4.7,2.3-7,3.4c-0.4,0.2-0.9,0.2-1.3,0.4c-5.8,3.4-11.6,6.7-17.4,10.2
		c-7.3,4.4-14.5,8.9-22,13c-1.8,1-4.4,0.6-6.7,0.9C159.8,114,160,114.1,160,114.1z M434.4,337.4c0.3,1.7,0.4,2.5,0.6,3.3
		c2.2,9.2,4.5,18.3,6.5,27.5c4.1,18.8,8.1,37.6,12.1,56.4c0.7,3.4,2.4,3.9,5.3,2.1c3.7-2.3,7.6-4.1,11.3-6.3
		c15.8-9.4,31.6-18.8,47.3-28.3c12.1-7.2,24.1-14.5,36.1-21.8c13.5-8.2,27.4-15.7,40.3-24.7c19.9-14,39.6-28.5,58.6-43.7
		c19.1-15.4,39.1-29.9,55.3-48.6c9.9-11.5,19.1-23.7,28.1-36c3.3-4.5,5.2-9.9,7.3-15.1c1.7-4.2,0.7-5.3-3.6-4.4
		c-10.5,2.2-21.1,4.4-31.6,6.7c-23,4.9-45.2,12.6-67.3,20.5c-14.6,5.2-28.9,11.6-43,18.1c-20.1,9.3-40.2,18.9-59.9,29
		c-12.7,6.5-24.8,14-37.1,21.2c-10,5.8-20.1,11.6-29.8,17.8c-11.4,7.3-22.6,15.1-33.7,22.8C435.9,334.8,435.1,336.5,434.4,337.4z
		 M433.3,329.7c1.8-0.9,3-1.4,4-2.1c16.5-10.9,32.8-22.1,49.4-32.7c12-7.7,24.4-14.8,36.9-21.9c8.2-4.6,16.6-8.7,25-12.9
		c16.4-8.1,32.8-16.4,49.5-24c11.1-5.1,22.7-9.2,34.1-13.6c10.3-3.9,20.6-7.6,31.1-11.1c10.4-3.5,21-6.6,31.6-9.6
		c6.5-1.9,13-3.7,19.6-5.1c9.4-2,18.8-3.5,29.1-5.3c-1.5-2.1-2.4-4.1-3.8-5.5c-8.9-8.4-19.3-13.9-31.6-15.5
		c-5.7-0.7-11.5-1.8-17.2-2c-13.9-0.4-27.8-0.9-41.6-0.3c-9.7,0.4-19.4,2.1-29,3.7c-14.9,2.5-29.7,5.1-44.4,8.2
		c-8.7,1.8-17.2,4.5-25.8,6.9c-8.9,2.5-17.7,5-26.5,7.9c-6.3,2.1-12.1,5.6-18.5,7.1c-15,3.7-28.2,10.4-40.2,20
		c-7.7,6.2-15.7,12.2-23.7,18c-8,5.7-16.2,10.9-24.4,16.3c-1.9,1.2-2.5,2.1-1.8,4.7c5.1,19.7,9.7,39.5,14.6,59.3
		C430.5,323.3,432,326.3,433.3,329.7z M427.7,339.6c-4.6,3.8-7.9,6.8-11.4,9.4c-8.8,6.7-18.1,12.8-26.4,20
		c-12.5,10.8-24.4,22.3-36.2,33.8c-12.5,12.3-24.8,24.8-36.9,37.6c-3.9,4.2-7.1,9.2-9.8,14.3c-4.9,9-9.4,18.2-13.8,27.4
		c-1.8,3.7,0.1,5.9,3.9,6c4.4,0.1,8.8,0,13.2-0.6c22.2-3,42.9-11,63.4-19.5c12.9-5.4,25.7-10.8,38.3-16.8
		c10.9-5.2,21.5-11.1,32.1-16.9c1.2-0.7,2.3-3.3,2-4.8c-2.2-12-4.7-24-7-36c-2.6-13.7-5-27.4-7.7-41.1
		C430.4,348.3,429,344.3,427.7,339.6z M299.5,314.2c0.4,0.5,0.8,1,1.3,1.4c2.3-1.5,4.5-3.2,7-4.4c14.4-7.2,29-13.8,43.1-21.5
		c12.9-7,25.2-15,37.7-22.6c5.2-3.2,10.3-6.7,15.4-10.1c4.1-2.7,1.6-6.3,0.6-9c-1.4-3.4-3.7-0.7-5.7,0.3c-8.9,5-17.9,9.8-26.8,14.8
		c-16.3,9.3-31.7,19.9-46.2,31.8c-5.8,4.8-12.6,8.4-18.8,12.7C304.4,309.6,302,312,299.5,314.2z M413,251.1
		c11.7-8.2,22.7-15.9,33.7-23.5c-0.2-0.5-0.4-0.9-0.6-1.4c-1.4,0.3-3,0.4-4.3,1c-8.8,4.2-17.4,8.8-26.4,12.5c-4,1.6-4.9,3.2-3.5,6.8
		C412.3,247.4,412.4,248.6,413,251.1z"/>
	<path d="M160,114.1c0,0-0.2-0.2-0.2-0.2c-1,1.6-1.7,3.8-3.1,4.7c-5.4,3.6-11.2,6.7-16.7,10.2c-7.1,4.5-14,9.3-21,13.8
		c-20.3,13.2-40.6,26.5-59,42.3c-9.7,8.3-19.9,16.1-29.6,24.3c-8.6,7.3-15.5,16.2-20.9,26.2c-0.3,0.6-0.3,1.5-0.7,3.5
		c8.9-1.5,17-3.3,25.1-4c7.8-0.6,15.6,0,23.4,0.1c0.1,0.9,0.2,1.8,0.2,2.7c-4.1,0.7-8.4,2.2-12.4,1.8c-8.6-0.8-16.5,0.1-24.5,3.7
		c-4.2,1.9-9.4,2.4-14.1,2.1c-6.3-0.4-8.4-6.3-5.2-11.8c4.4-7.6,10.8-13,17.6-18.2c1.3-1,1.1-3.7,2.2-5c2.3-2.6,4.8-5.1,7.5-7.2
		c11.7-9.3,23.4-18.7,35.3-27.7c13.5-10.1,27.1-20,40.9-29.6c8.6-6,17.6-11.5,26.5-17.1c6.7-4.3,13.5-8.5,20.4-12.4
		C154.4,115.1,157.3,114.9,160,114.1z"/>
</g>
</svg>
